<?xml version="1.0" standalone="no"?>
<!DOCTYPE svg PUBLIC "-//W3C//DTD SVG 20010904//EN"
 "http://www.w3.org/TR/2001/REC-SVG-20010904/DTD/svg10.dtd">
<svg version="1.0" xmlns="http://www.w3.org/2000/svg"
 width="300.000000pt" height="300.000000pt" viewBox="0 0 300.000000 300.000000"
 preserveAspectRatio="xMidYMid meet">

<g transform="translate(0.000000,300.000000) scale(0.100000,-0.100000)"
fill="#000000" stroke="none">
<path d="M0 1500 l0 -1500 1500 0 1500 0 0 1500 0 1500 -1500 0 -1500 0 0
-1500z m1188 376 c71 -25 122 -101 122 -181 -1 -44 -34 -110 -69 -136 -17 -12
-31 -26 -31 -30 0 -7 41 -81 92 -166 l20 -33 -79 0 -79 0 -44 90 -44 90 -43 0
-43 0 0 -90 0 -90 -70 0 -70 0 0 280 0 280 153 -1 c91 0 165 -5 185 -13z
m1382 -56 l0 -60 55 0 55 0 0 -55 0 -55 -55 0 -55 0 0 -100 c0 -111 5 -120 74
-120 l36 0 0 -50 0 -50 -79 0 c-64 0 -83 4 -105 21 -43 34 -50 58 -56 179 l-5
115 -43 3 -43 3 3 52 3 52 43 3 42 3 0 60 0 59 65 0 65 0 0 -60z m-902 -66
c77 -32 128 -105 134 -190 l3 -49 -157 -3 c-173 -3 -180 -6 -134 -59 31 -36
93 -39 129 -5 19 18 35 22 85 22 56 0 62 -2 62 -20 0 -34 -88 -114 -143 -129
-102 -29 -210 15 -259 104 -53 96 -31 230 48 293 65 52 160 67 232 36z m560
-10 c15 -11 37 -40 50 -64 20 -40 22 -58 22 -197 l0 -153 -65 0 -65 0 0 138
c0 125 -2 140 -20 160 -23 24 -68 29 -102 11 -35 -19 -48 -70 -48 -194 l0
-115 -65 0 -65 0 0 215 0 215 65 0 c58 0 65 -2 65 -19 0 -19 2 -18 43 5 34 21
52 24 100 21 37 -2 67 -10 85 -23z m-1758 -124 c0 -136 1 -142 25 -165 27 -27
51 -31 89 -13 36 16 46 61 46 201 l0 118 63 -3 62 -3 3 -114 c6 -244 -48 -326
-213 -326 -84 0 -143 29 -178 85 -20 32 -22 51 -25 198 l-4 162 66 0 66 0 0
-140z"/>
<path d="M990 1700 l0 -70 73 0 c85 0 110 17 110 72 0 49 -31 68 -114 68 l-69
0 0 -70z"/>
<path d="M1514 1633 l-26 -28 87 -3 c48 -2 90 0 93 3 3 3 -5 16 -18 30 -34 37
-101 35 -136 -2z"/>
</g>
</svg>
